# xmcd
#
# Track frame offsets: 
#        150
#        19600
#        47306
#        69398
#        87561
#        107901
#        125174
#        142688
#        159599
#        172249
#        193926
#
# Disc length: 2825 seconds
#
# Revision: 0
# Processed by: cddbd v1.5.2PL0 Copyright (c) Steve Scherf et al.
# Submitted via: ExactAudioCopy v0.99pb4
#
DISCID=970b070b
DTITLE=Катя Огонек - Ремиксы
DYEAR=2000
DGENRE=
TTITLE0=Глупенький
TTITLE1=Сережка
TTITLE2=Белая тайга
TTITLE3=Следователь
TTITLE4=Лейтенантик
TTITLE5=Я ревную тебя
TTITLE6=Конвоир
TTITLE7=Вор
TTITLE8=Станция Хакинс
TTITLE9=Северная ночь
TTITLE10=Цветы
EXTD=
EXTT0=
EXTT1=
EXTT2=
EXTT3=
EXTT4=
EXTT5=
EXTT6=
EXTT7=
EXTT8=
EXTT9=
EXTT10=
PLAYORDER=
